<svg width="202" height="157" viewBox="0 0 202 157" fill="none" xmlns="http://www.w3.org/2000/svg">
<path d="M193.101 0H8.89868C3.98407 0 0 3.47977 0 7.77228V149.228C0 153.52 3.98407 157 8.89868 157H193.101C198.016 157 202 153.52 202 149.228V7.77228C202 3.47977 198.016 0 193.101 0Z" fill="black"/>
<path d="M66.603 73.7105C70.9351 60.1957 91.511 52.4301 99.4033 38.2549C103.222 31.3944 101.437 18.7269 94.9183 13.6541C94.572 13.3833 93.1361 10.95 94.5979 11.8619C109.123 21.1444 120.933 33.3995 115.47 45.2275C107.888 61.6435 88.3618 69.8419 88.5045 86.557C88.5655 93.5104 94.4306 99.0885 101.888 104.92L102.193 106.139C82.8287 101.312 61.5563 89.4537 66.603 73.7105ZM115.476 92.0649C126.725 83.2276 133.593 77.859 130.689 67.6238C134.221 72.3579 137.501 78.9239 134.699 84.0409C132.193 88.6142 129.699 91.8009 120.573 96.2598C115.737 98.6217 112.101 101.18 109.064 105.461C108.905 100.98 109.895 96.4501 115.476 92.0649ZM102.988 76.8508C107.291 69.9382 113.571 64.9911 119.658 57.8995C123.978 52.8663 127.935 44.507 123.799 37.6828L124.066 37.3565C130.405 43.5418 130.669 53.6264 128.681 61.0975C125.556 72.8439 114.42 77.5905 107.949 86.1797C105.415 89.5443 103.974 93.6644 104.693 97.9817C97.5084 92.8601 99.1375 83.0395 102.988 76.8508Z" fill="url(#paint0_linear_4_32)"/>
<path d="M43.359 122.025L41.7022 125.923H33.0464L24.7626 145.325H18.6088L26.8589 125.923H17.7974L19.4541 122.025H43.359ZM36.2923 127.577H52.4543L51.1694 130.589H41.1612L39.944 133.424H47.6192L46.3344 136.436H38.6591L37.4081 139.36H47.4502L46.1653 142.372H30.0034L36.2923 127.577ZM54.7197 142.372H48.5659L53.4686 130.855C53.8744 129.91 54.483 129.083 55.2945 128.551C56.2074 127.902 57.357 127.606 58.7094 127.606H71.6931L65.4041 142.372H59.2504L61.0762 138.09H56.5455L54.7197 142.372ZM59.7238 130.589L57.8303 135.078H62.3611L64.2884 130.589H59.7238ZM89.7485 127.577H95.4289L89.1399 142.372H82.9862L86.3335 134.517L79.8417 139.36L77.5087 134.369L74.1275 142.372H67.9738L74.2628 127.577H79.4021L82.1747 133.542L89.7485 127.577ZM120.111 122.025H126.299L116.358 145.325H111.185L108.514 131.77L102.766 145.325H96.6123L106.519 122.025H111.963L114.363 135.55L120.111 122.025ZM125.386 130.589L126.671 127.577H132.825L131.574 130.589H125.386ZM126.536 142.372H120.382L124.946 131.652H131.1L126.536 142.372ZM147.296 127.577H153.281L146.992 142.372H141.582L138.505 134.369L135.124 142.372H129.105L135.394 127.577H140.804L143.881 135.58L147.296 127.577ZM163.525 130.589H157.372L158.623 127.606H164.81L163.525 130.589ZM158.657 142.077C158.251 143.022 157.608 143.819 156.831 144.38C155.918 145.03 154.734 145.325 153.382 145.325H146.687L148.344 141.398H152.773L156.898 131.652H163.086L158.657 142.077ZM167.245 142.372H161.091L165.994 130.855C166.399 129.91 167.008 129.083 167.82 128.551C168.732 127.902 169.882 127.606 171.235 127.606H184.218L177.929 142.372H171.776L173.601 138.09H169.071L167.245 142.372ZM172.249 130.589L170.355 135.078H174.886L176.813 130.589H172.249Z" fill="#5F73B9"/>
<defs>
<linearGradient id="paint0_linear_4_32" x1="65.8502" y1="106.139" x2="135.754" y2="106.139" gradientUnits="userSpaceOnUse">
<stop stop-color="#7D141D"/>
<stop offset="1" stop-color="#FF1E27"/>
</linearGradient>
</defs>
</svg>
